<?xml version="1.0" encoding="utf-8"?>
<!-- Generator: Adobe Illustrator 25.0.0, SVG Export Plug-In . SVG Version: 6.00 Build 0)  -->
<svg version="1.1" id="Layer_1" xmlns="http://www.w3.org/2000/svg" xmlns:xlink="http://www.w3.org/1999/xlink" x="0px" y="0px"
	 viewBox="0 0 927 236.6" style="enable-background:new 0 0 927 236.6;" xml:space="preserve">
<style type="text/css">
	.st0{fill:#B21F3C;}
	.st1{display:none;}
	.st2{font-family:'Georgia';}
	.st3{font-size:149.3904px;}
	.st4{font-size:118.2328px;}
</style>
<path class="st0" d="M189.82,57.26c0.48,0,0.87,0.38,0.87,0.87c-0.04,5.25-0.38,17.79,0.39,22.1c1.37,7.7,3.31,10.44,6.8,18.41
	c2.22,5.07,3.49,6.12,3.12,21.91c-0.45,19.08,0.08,35.02-0.45,38.66c-0.24,1.63-6.22,2.31-14.88,2.54h-0.03
	c-8.66-0.23-14.64-0.88-14.88-2.51c-0.53-3.64,0-19.59-0.45-38.66c-0.37-15.79,0.9-16.85,3.12-21.91c3.49-7.96,5.43-10.71,6.8-18.41
	c0.77-4.31,0.6-16.89,0.58-22.14c0-0.48,0.39-0.86,0.87-0.86L189.82,57.26z"/>
<path class="st1" d="M315.84,64.13l4.67,2.56c0.83,0.45,1.83,0.07,2.24-0.87L324,63c0.38-0.85,1.25-1.26,2.04-0.96l0,0
	c0.61,0.23,1.27,0.05,1.73-0.46l0.71-0.81c0.66-0.75,0.66-1.52,0-2.7l-1.91-2.68c-2.4-2.76-4.58-3.19-6.6-3.81l-2.47-0.63
	c-0.87-0.29-1.78,0.26-2.07,1.23l-0.4,1.36c-0.24,0.82,0.03,1.72,0.66,2.2l0.11,0.08c0.69,0.52,0.94,1.53,0.6,2.38l-1.36,3.41
	C314.66,62.56,315.02,63.67,315.84,64.13z"/>
<text transform="matrix(1 0 0 1 25.6267 160.9121)" class="st2 st3">W</text>
<text transform="matrix(1 0 0 1 207 162)" class="st2 st4">necierge.com</text>
<path d="M185.53,51.92c2.42,0.43,4.43,0.51,4.49,0.17l2.74-15.53c0.03-0.2-0.1-0.39-0.31-0.45c-0.67-0.21-2.13-0.87-3.92-1.19
	c-1.84-0.33-3.49-0.19-4.15-0.23c-0.19-0.01-0.34,0.1-0.37,0.27l-2.75,15.58C181.19,50.88,183.1,51.49,185.53,51.92L185.53,51.92z"
	/>
</svg>
